<svg xmlns="http://www.w3.org/2000/svg" viewBox="0 0 32 32">
  <!-- Bracket shape -->
  <path d="M 22 4 
           L 14 4 
           Q 8 4, 8 10 
           L 8 13
           Q 8 16, 5 16
           Q 8 16, 8 19
           L 8 22
           Q 8 28, 14 28
           L 22 28" 
        fill="none" 
        stroke="#4A9EFF" 
        stroke-width="3" 
        stroke-linecap="round"
        stroke-linejoin="round"/>
  
  <!-- Small basketball -->
  <circle cx="24" cy="16" r="6" fill="#E65100"/>
  <line x1="18" y1="16" x2="30" y2="16" stroke="#000" stroke-width="0.8"/>
  <line x1="24" y1="10" x2="24" y2="22" stroke="#000" stroke-width="0.8"/>
  <path d="M 24 10 Q 21 13, 21 16 Q 21 19, 24 22" fill="none" stroke="#000" stroke-width="0.8"/>
  <path d="M 24 10 Q 27 13, 27 16 Q 27 19, 24 22" fill="none" stroke="#000" stroke-width="0.8"/>
  <circle cx="24" cy="16" r="6" fill="none" stroke="#000" stroke-width="0.8"/>
</svg>
